<?xml version="1.0" standalone="no"?>
<!DOCTYPE svg PUBLIC "-//W3C//DTD SVG 20010904//EN"
 "http://www.w3.org/TR/2001/REC-SVG-20010904/DTD/svg10.dtd">
<svg version="1.0" xmlns="http://www.w3.org/2000/svg"
 width="1200.000000pt" height="1200.000000pt" viewBox="0 0 1200.000000 1200.000000"
 preserveAspectRatio="xMidYMid meet">
<metadata>
Created by potrace 1.11, written by Peter Selinger 2001-2013
</metadata>
<g transform="translate(0.000000,1200.000000) scale(0.100000,-0.100000)"
fill="#000000" stroke="none">
<path d="M0 6000 l0 -6000 6000 0 6000 0 0 6000 0 6000 -6000 0 -6000 0 0
-6000z m9600 3600 l0 -70 -3600 0 -3600 0 0 70 0 70 3600 0 3600 0 0 -70z m0
-675 l0 -445 -3600 0 -3600 0 0 445 0 445 3600 0 3600 0 0 -445z m-4062 -1527
c15 -15 15 -51 0 -66 -9 -9 -90 -12 -302 -12 -255 0 -292 2 -308 17 -22 20
-23 37 -2 57 13 14 55 16 308 16 214 0 295 -3 304 -12z m-4 -227 c9 -7 16 -22
16 -32 0 -41 -23 -44 -325 -44 -271 0 -288 2 -301 20 -18 24 -18 31 4 53 16
16 43 17 303 17 226 0 290 -3 303 -14z m4 -223 c15 -15 15 -51 0 -66 -9 -9
-90 -12 -304 -12 -253 0 -295 2 -308 16 -9 8 -16 22 -16 29 0 7 7 21 16 29 13
14 55 16 308 16 214 0 295 -3 304 -12z m1530 0 c15 -15 15 -51 0 -66 -9 -9
-90 -12 -304 -12 -253 0 -295 2 -308 16 -9 8 -16 22 -16 29 0 7 7 21 16 29 13
14 55 16 308 16 214 0 295 -3 304 -12z m-1534 -227 c9 -7 16 -22 16 -32 0 -41
-23 -44 -325 -44 -271 0 -288 2 -301 20 -18 24 -18 31 4 53 16 16 43 17 303
17 225 0 290 -3 303 -14z m1530 0 c9 -7 16 -22 16 -32 0 -41 -23 -44 -325 -44
-271 0 -288 2 -301 20 -18 24 -18 31 4 53 16 16 43 17 303 17 225 0 290 -3
303 -14z m-1526 -223 c15 -15 15 -51 0 -66 -9 -9 -90 -12 -302 -12 -255 0
-292 2 -308 17 -22 20 -23 37 -2 57 13 14 55 16 308 16 214 0 295 -3 304 -12z
m766 -10 c13 -19 14 -25 2 -43 -13 -19 -24 -20 -306 -23 -308 -2 -320 -1 -320
42 0 45 8 46 316 46 291 0 293 0 308 -22z m764 10 c15 -15 15 -51 0 -66 -9 -9
-90 -12 -302 -12 -255 0 -292 2 -308 17 -22 20 -23 37 -2 57 13 14 55 16 308
16 214 0 295 -3 304 -12z m-1534 -227 c9 -7 16 -22 16 -32 0 -41 -23 -44 -325
-44 -271 0 -288 2 -301 20 -18 24 -18 31 4 53 16 16 43 17 303 17 226 0 290
-3 303 -14z m771 -4 c16 -23 8 -57 -16 -66 -10 -3 -147 -6 -304 -6 -241 0
-287 3 -295 15 -18 28 -9 63 18 71 7 2 142 4 298 4 262 0 287 -2 299 -18z
m759 4 c9 -7 16 -22 16 -32 0 -41 -23 -44 -325 -44 -271 0 -288 2 -301 20 -18
24 -18 31 4 53 16 16 43 17 303 17 226 0 290 -3 303 -14z m-1526 -223 c15 -15
15 -51 0 -66 -9 -9 -90 -12 -304 -12 -253 0 -295 2 -308 16 -9 8 -16 22 -16
29 0 7 7 21 16 29 13 14 55 16 308 16 214 0 295 -3 304 -12z m766 -10 c13 -19
14 -25 2 -43 -13 -19 -24 -20 -306 -23 -308 -2 -320 -1 -320 42 0 45 8 46 316
46 291 0 293 0 308 -22z m764 10 c15 -15 15 -51 0 -66 -9 -9 -90 -12 -304 -12
-253 0 -295 2 -308 16 -9 8 -16 22 -16 29 0 7 7 21 16 29 13 14 55 16 308 16
214 0 295 -3 304 -12z m-1534 -227 c9 -7 16 -22 16 -32 0 -41 -23 -44 -325
-44 -271 0 -288 2 -301 20 -18 24 -18 31 4 53 16 16 43 17 303 17 225 0 290
-3 303 -14z m771 -4 c16 -23 8 -57 -16 -66 -10 -3 -147 -6 -304 -6 -241 0
-287 3 -295 15 -18 28 -9 63 18 71 7 2 142 4 298 4 262 0 287 -2 299 -18z
m759 4 c9 -7 16 -22 16 -32 0 -41 -23 -44 -325 -44 -271 0 -288 2 -301 20 -18
24 -18 31 4 53 16 16 43 17 303 17 225 0 290 -3 303 -14z m-1828 -608 c1 -35
2 -67 3 -71 0 -4 20 -13 44 -19 111 -30 177 -114 202 -255 l6 -38 -100 0 -99
0 -7 41 c-21 124 -182 149 -214 34 -22 -80 19 -131 146 -184 137 -56 217 -119
249 -197 19 -45 18 -165 -2 -212 -30 -73 -102 -129 -198 -153 l-46 -11 0 -64
0 -64 -50 0 -50 0 0 63 0 63 -72 21 c-124 37 -200 124 -214 247 l-7 56 100 0
100 0 6 -40 c7 -54 31 -88 72 -106 78 -32 156 -4 174 62 24 85 -5 117 -174
199 -189 91 -236 147 -236 286 -1 138 82 231 234 263 26 6 27 8 27 77 l0 70
53 -3 52 -3 1 -62z m840 0 c1 -35 2 -67 3 -71 0 -4 20 -13 44 -19 111 -30 177
-114 202 -255 l6 -38 -100 0 -99 0 -7 41 c-21 124 -182 149 -214 34 -22 -80
19 -131 146 -184 137 -56 217 -119 249 -197 19 -45 18 -165 -2 -212 -30 -73
-102 -129 -198 -153 l-46 -11 0 -64 0 -64 -50 0 -50 0 0 63 0 63 -72 21 c-124
37 -200 124 -214 247 l-7 56 100 0 100 0 6 -40 c7 -54 31 -88 72 -106 78 -32
156 -4 174 62 24 85 -5 117 -174 199 -189 91 -236 147 -236 286 -1 138 82 231
234 263 26 6 27 8 27 77 l0 70 53 -3 52 -3 1 -62z m840 0 c1 -35 2 -67 3 -71
0 -4 20 -13 44 -19 111 -30 177 -114 202 -255 l6 -38 -100 0 -99 0 -7 41 c-21
124 -182 149 -214 34 -22 -80 19 -131 146 -184 137 -56 217 -119 249 -197 19
-45 18 -165 -2 -212 -30 -73 -102 -129 -198 -153 l-46 -11 0 -64 0 -64 -50 0
-50 0 0 63 0 63 -72 21 c-124 37 -200 124 -214 247 l-7 56 100 0 100 0 6 -40
c7 -54 31 -88 72 -106 78 -32 156 -4 174 62 24 85 -5 117 -174 199 -189 91
-236 147 -236 286 -1 138 82 231 234 263 26 6 27 8 27 77 l0 70 53 -3 52 -3 1
-62z m2684 -2138 l0 -445 -3600 0 -3600 0 0 445 0 445 3600 0 3600 0 0 -445z
m0 -675 l0 -70 -3600 0 -3600 0 0 70 0 70 3600 0 3600 0 0 -70z"/>
</g>
</svg>
